<?xml version="1.0"?>
<svg width="602.06919" height="322.49963" xmlns="http://www.w3.org/2000/svg" xmlns:svg="http://www.w3.org/2000/svg" version="1.1">
 <g class="layer">
  <title>Layer 1</title>
  <g id="layer1">
   <g id="svg_1">
    <path d="m43,0l193.41,0.03l0.22,21.34l21.31,0.22l0.14,85.83l129.01,0.05l21.39,0l86.03,0.06l0.1,42.87l21.4,0.22l0.08,42.93l-0.02,64.38l-21.43,0.03l-0.24,-21.35l-21.32,-0.11l-0.16,-21.39l-21.37,-0.14l-0.14,-21.4l-408.36,0.06l-0.1,21.34l-21.4,0.16l-0.14,21.4l-21.39,-0.03l0,-128.98l42.87,-0.1l0.11,-107.42m43.04,21.5l-0.03,85.92l150.38,0l0.06,-64.33l-21.32,-0.22l-0.22,-21.31l-128.87,-0.06z" fill="#f5df4d" id="path2314"/>
    <path d="m86,21.5l128.87,0.05l0.22,21.32l21.31,0.22l-0.05,64.32l-150.38,0l0.03,-85.91z" fill="#aaffff" id="path2322"/>
    <path d="m42.9,214.97l408.6,0l0.13,21.43l21.4,0.1l-0.05,42.93l-21.37,0.22l-0.16,21.31l-408.47,0.03l-0.22,-21.37l-21.32,-0.16l-0.08,-42.93l21.4,-0.13l0.14,-21.43m21.58,21.59l-0.03,42.87l42.88,0.03l0.03,-42.88l-42.88,-0.02m64.52,0l-0.03,42.87l42.88,0.03l0.02,-42.88l-42.87,-0.02m64.51,0l-0.02,42.87l42.87,0.03l0.03,-42.88l-42.88,-0.02m64.52,0l-0.03,42.87l42.88,0.03l0.03,-42.88l-42.88,-0.02m64.52,0l-0.03,42.87l42.87,0.03l0.03,-42.88l-42.87,-0.02m64.51,0l-0.03,42.87l42.88,0.03l0.03,-42.88l-42.88,-0.02z" fill="#808080" id="path2364"/>
    <path d="m387.1,236.56l42.88,0.03l-0.03,42.87l-42.88,-0.02l0.03,-42.88zm-64.52,0l42.88,0.03l-0.03,42.87l-42.87,-0.02l0.02,-42.88zm-64.51,0l42.87,0.03l-0.02,42.87l-42.88,-0.02l0.03,-42.88zm-64.52,0l42.88,0.03l-0.03,42.87l-42.88,-0.02l0.03,-42.88zm-64.51,0l42.87,0.03l-0.03,42.87l-42.87,-0.02l0.03,-42.88zm-64.52,0l42.88,0.03l-0.03,42.87l-42.88,-0.02l0.03,-42.88z" id="path2390"/>
    <path d="m580.6,301.02l21.48,0.08l-0.08,21.4l-21.35,-0.08l-0.05,-21.4zm-537.55,-0.03l408.47,-0.02l-0.03,21.5l-408.47,-0.03l0.03,-21.45zm408.63,-21.34l21.37,-0.22l-0.05,21.54l-21.48,0l0.16,-21.32zm-430.16,-0.19l21.32,0.16l0.21,21.37l-21.53,-0.05l0,-21.48zm451.59,-42.96l21.32,0.11l0.24,21.35l-0.19,21.5l-21.42,-0.03l0.05,-42.93zm-473.06,0l21.4,0.03l0.08,42.93l-21.51,-0.03l0.03,-42.93zm451.53,-21.53l21.37,0.14l0.16,21.39l-21.4,-0.1l-0.13,-21.43zm-430,0.16l21.4,-0.16l-0.14,21.43l-21.39,0.13l0.13,-21.4zm21.51,-21.5l408.36,-0.06l0.13,21.4l-408.6,0l0.11,-21.34zm516.08,-43.09l21.42,-0.06l0.03,150.54l-21.45,-0.08l-0.11,-42.87l-42.96,-0.14l0.03,-64.38l42.93,-0.11l0.11,-42.9zm21.53,-21.53l21.4,0.08l-0.09,21.34l-21.42,0.05l0.11,-21.48l0,0.01zm-193.58,-107.53l21.4,0.08l0,85.91l-21.4,0l0,-85.99z" fill="#c0c0c0" id="path2426"/>
   </g>
  </g>
 </g>
</svg>